<?xml version="1.0" encoding="UTF-8" standalone="no"?>
<!-- Created with Inkscape (http://www.inkscape.org/) -->

<svg
   xmlns:dc="http://purl.org/dc/elements/1.1/"
   xmlns:cc="http://creativecommons.org/ns#"
   xmlns:rdf="http://www.w3.org/1999/02/22-rdf-syntax-ns#"
   xmlns:svg="http://www.w3.org/2000/svg"
   xmlns="http://www.w3.org/2000/svg"
   xmlns:sodipodi="http://sodipodi.sourceforge.net/DTD/sodipodi-0.dtd"
   xmlns:inkscape="http://www.inkscape.org/namespaces/inkscape"
   width="155"
   height="155"
   viewBox="0 0 155 155"
   id="svg4379"
   version="1.1"
   inkscape:version="0.91 r13725"
   sodipodi:docname="cloud-solutions.svg">
  <defs
     id="defs4381">
    <marker
       inkscape:stockid="Arrow2Mend"
       orient="auto"
       refY="0"
       refX="0"
       id="Arrow2Mend-3"
       style="overflow:visible"
       inkscape:isstock="true">
      <path
         id="path4536-6"
         style="fill:#000080;fill-opacity:1;fill-rule:evenodd;stroke:#000080;stroke-width:0.625;stroke-linejoin:round;stroke-opacity:1"
         d="M 8.7185878,4.0337352 -2.2072895,0.01601326 8.7185884,-4.0017078 c -1.7454984,2.3720609 -1.7354408,5.6174519 -6e-7,8.035443 z"
         transform="scale(-0.6,-0.6)"
         inkscape:connector-curvature="0" />
    </marker>
  </defs>
  <sodipodi:namedview
     id="base"
     pagecolor="#ffffff"
     bordercolor="#666666"
     borderopacity="1.0"
     inkscape:pageopacity="0.0"
     inkscape:pageshadow="2"
     inkscape:zoom="2.1935484"
     inkscape:cx="-140.41176"
     inkscape:cy="74.075867"
     inkscape:document-units="px"
     inkscape:current-layer="layer1"
     showgrid="false"
     units="px"
     inkscape:window-width="1920"
     inkscape:window-height="1028"
     inkscape:window-x="0"
     inkscape:window-y="24"
     inkscape:window-maximized="1" />
  <metadata
     id="metadata4384">
    <rdf:RDF>
      <cc:Work
         rdf:about="">
        <dc:format>image/svg+xml</dc:format>
        <dc:type
           rdf:resource="http://purl.org/dc/dcmitype/StillImage" />
        <dc:title />
      </cc:Work>
    </rdf:RDF>
  </metadata>
  <g
     inkscape:label="Layer 1"
     inkscape:groupmode="layer"
     id="layer1"
     transform="translate(0,-897.36216)">
    <path
       sodipodi:nodetypes="ccccccccc"
       inkscape:connector-curvature="0"
       id="path4173"
       d="m 53.600187,961.50336 c 13.614658,-33.3563 48.704673,-22.99067 53.942473,5.48972 3.74666,-2.59586 10.41689,-1.46799 13.12759,7.87657 12.32056,-5.42597 24.33947,20.38552 1.90948,24.34582 -9.47505,9.63393 -19.85342,15.20293 -34.370429,2.14813 -7.176864,6.7263 -13.165899,4.5438 -19.094682,1.9093 -10.391769,7.5391 -18.488633,4.9332 -22.913625,-4.29613 -25.070352,14.66423 -41.1405962,-31.97147 -6.205769,-28.40343 -0.984885,-7.18725 7.960191,-12.32721 13.604962,-9.06998 z"
       style="fill:none;fill-rule:evenodd;stroke:#3a5a79;stroke-width:3;stroke-linecap:butt;stroke-linejoin:miter;stroke-miterlimit:4;stroke-dasharray:none;stroke-opacity:1" />
    <path
       id="path4147-1-9-8-8-7-0"
       d="M 151.60562,974.86212 A 74.1056,74.1056 0 0 1 77.499969,1048.9678 74.1056,74.1056 0 0 1 3.3943795,974.86212 74.1056,74.1056 0 0 1 77.499969,900.7565 74.1056,74.1056 0 0 1 151.60562,974.86212 Z"
       style="opacity:1;fill:none;fill-opacity:1;fill-rule:nonzero;stroke:#3a5a79;stroke-width:1.78875589;stroke-linecap:round;stroke-linejoin:round;stroke-miterlimit:4;stroke-dasharray:none;stroke-dashoffset:0;stroke-opacity:1"
       inkscape:connector-curvature="0" />
  </g>
</svg>
